<svg xmlns="http://www.w3.org/2000/svg" width="45.005" height="30.802" viewBox="0 0 45.005 30.802"><path d="M44.824,16.987c-.3-.337-4.416-5.491-5.14-6.363S38.6,9.907,38.159,9.97s-5.66.942-6.265,1.041-.984.345-.612.865c.33.464,3.755,5.323,4.514,6.391L22.177,21.53,11.334,3.424c-.429-.64-.52-.865-1.5-.816s-8.5.668-9.035.717S-.33,3.607.2,4.873s9.07,19.659,9.309,20.194a1.828,1.828,0,0,0,2.306,1.055c1.484-.359,6.63-1.7,9.443-2.44,1.484,2.693,4.514,8.149,5.077,8.93.745,1.048,1.266.872,2.412.52.9-.274,14.034-5,14.625-5.238s.956-.415.555-1.013c-.3-.436-3.762-5.077-5.576-7.509,1.245-.33,5.667-1.5,6.138-1.638.555-.141.633-.408.33-.745ZM20.06,22.05c-.162.035-7.791,1.863-8.2,1.955s-.408.049-.457-.091S2.334,5.161,2.208,4.929s-.12-.415,0-.415,7.207-.633,7.453-.647.225.042.316.2c0,0,10,17.255,10.167,17.557S20.222,22.015,20.06,22.05Zm21.516,4.036c.12.19.246.316-.141.45S28.519,30.9,28.28,31.008s-.436.141-.745-.316-4.388-7.509-4.388-7.509L36.422,19.73c.33-.105.436-.176.647.155s4.388,6.012,4.507,6.2Zm.851-9.429c-.3.063-5.175,1.273-5.175,1.273l-3.987-5.47c-.112-.162-.2-.316.077-.352s4.809-.858,5.013-.9.38-.105.633.239,3.7,4.711,3.832,4.88-.1.26-.394.33Z" transform="translate(0.006 -2.602)" fill="#8f71ff"/></svg>