<?xml version="1.0" encoding="UTF-8" standalone="no"?>
<svg
   xmlns:dc="http://purl.org/dc/elements/1.1/"
   xmlns:cc="http://creativecommons.org/ns#"
   xmlns:rdf="http://www.w3.org/1999/02/22-rdf-syntax-ns#"
   xmlns:svg="http://www.w3.org/2000/svg"
   xmlns="http://www.w3.org/2000/svg"
   viewBox="0 0 133.33333 133.33333"
   height="133.33333"
   width="133.33333"
   xml:space="preserve"
   id="svg2"
   version="1.1"><metadata
     id="metadata8"><rdf:RDF><cc:Work
         rdf:about=""><dc:format>image/svg+xml</dc:format><dc:type
           rdf:resource="http://purl.org/dc/dcmitype/StillImage" /></cc:Work></rdf:RDF></metadata><defs
     id="defs6"><clipPath
       id="clipPath18"
       clipPathUnits="userSpaceOnUse"><path
         id="path16"
         d="M 0,100 H 100 V 0 H 0 Z" /></clipPath></defs><g
     transform="matrix(1.3333333,0,0,-1.3333333,0,133.33333)"
     id="g10"><g
       id="g12"><g
         clip-path="url(#clipPath18)"
         id="g14"><g
           transform="translate(87.4923,2.03)"
           id="g20"><path
             id="path22"
             style="fill:#1b68a0;fill-opacity:1;fill-rule:nonzero;stroke:none"
             d="m 0,0 h -74.469 c -6.188,0 -11.205,5.017 -11.205,11.205 v 73.53 c 0,6.188 5.017,11.205 11.205,11.205 H 0 c 6.188,0 11.205,-5.017 11.205,-11.205 V 11.205 C 11.205,5.017 6.188,0 0,0" /></g><g
           transform="translate(31.1671,35.7815)"
           id="g24"><path
             id="path26"
             style="fill:#ffffff;fill-opacity:1;fill-rule:nonzero;stroke:none"
             d="m 0,0 h -9.742 l 17.76,44.962 c 0.949,2.398 2.286,4.084 4.009,5.059 1.724,0.974 3.935,1.461 6.633,1.461 2.647,0 4.833,-0.487 6.557,-1.461 1.723,-0.975 3.035,-2.661 3.934,-5.059 L 46.237,0 H 36.42 L 21.057,40.691 c -0.449,1.149 -1.273,1.724 -2.472,1.724 -1.199,0 -2.05,-0.575 -2.548,-1.724 z" /></g><g
           transform="translate(36.2577,27.3975)"
           id="g28"><path
             id="path30"
             style="fill:#ffffff;fill-opacity:1;fill-rule:nonzero;stroke:none"
             d="M 0,0 C 0.946,0 1.759,-0.137 2.44,-0.411 3.121,-0.685 3.681,-1.05 4.121,-1.507 4.561,-1.963 4.884,-2.499 5.092,-3.113 5.3,-3.727 5.404,-4.366 5.404,-5.03 5.404,-5.661 5.308,-6.292 5.117,-6.923 4.926,-7.554 4.615,-8.118 4.183,-8.616 3.752,-9.114 3.191,-9.521 2.503,-9.836 1.814,-10.152 0.979,-10.309 0,-10.309 h -5.213 c -0.233,0 -0.422,-0.189 -0.422,-0.423 v -6.036 h -2.981 v 6.668 c 0,0 0.284,1.623 0.699,2.037 0.413,0.414 1.084,0.621 2.012,0.611 h 6.036 c 0.414,0.01 0.77,0.076 1.068,0.209 0.298,0.132 0.538,0.306 0.721,0.521 0.182,0.215 0.318,0.46 0.41,0.733 0.09,0.273 0.136,0.559 0.136,0.857 0,0.613 -0.186,1.139 -0.559,1.578 -0.372,0.438 -0.956,0.658 -1.751,0.697 H -8.616 V 0 Z" /></g><g
           transform="translate(53.7501,27.3975)"
           id="g32"><path
             id="path34"
             style="fill:#ffffff;fill-opacity:1;fill-rule:nonzero;stroke:none"
             d="M 0,0 C 0.944,0 1.755,-0.137 2.434,-0.41 3.113,-0.683 3.672,-1.048 4.111,-1.503 4.55,-1.959 4.873,-2.493 5.08,-3.105 5.287,-3.718 5.391,-4.356 5.391,-5.018 5.391,-5.548 5.324,-6.074 5.192,-6.595 5.059,-7.117 4.852,-7.606 4.571,-8.061 4.289,-8.517 3.925,-8.918 3.478,-9.266 3.031,-9.614 2.484,-9.879 1.838,-10.061 l 3.9,-6.707 H 2.531 l -3.891,6.459 h -4.453 c -0.233,0 -0.422,-0.189 -0.422,-0.423 v -6.036 h -2.981 v 6.668 c 0,0 0.259,1.623 0.673,2.037 0.414,0.414 1.084,0.621 2.012,0.611 h 6.533 c 0.414,0.01 0.771,0.076 1.069,0.209 0.298,0.132 0.538,0.306 0.72,0.521 0.182,0.215 0.319,0.464 0.41,0.746 0.091,0.281 0.136,0.571 0.136,0.869 0,0.596 -0.186,1.114 -0.558,1.553 -0.373,0.438 -0.965,0.658 -1.777,0.697 H -9.092 V 0 Z" /></g><g
           transform="translate(64.7797,27.3975)"
           id="g36"><path
             id="path38"
             style="fill:#ffffff;fill-opacity:1;fill-rule:nonzero;stroke:none"
             d="m 0,0 v -10.857 c 0,-0.404 0.054,-0.787 0.162,-1.149 0.107,-0.362 0.293,-0.674 0.558,-0.935 0.265,-0.261 0.617,-0.467 1.056,-0.619 0.439,-0.151 0.99,-0.227 1.652,-0.227 h 6.509 v -2.981 H 3.309 c -1.128,0 -2.092,0.145 -2.892,0.435 -0.8,0.289 -1.453,0.691 -1.958,1.205 -0.505,0.513 -0.872,1.121 -1.099,1.825 -0.227,0.704 -0.341,1.478 -0.341,2.323 l 0,10.98 z" /></g></g></g></g></svg>