<svg xmlns="http://www.w3.org/2000/svg" width="686.242" height="493.818" viewBox="0 0 686.242 493.818"><g transform="translate(0.001 -0.04)"><path d="M663.561,355.853H573.166V336.316a4.676,4.676,0,0,0-4.676-4.676H541.945V310.814A2.944,2.944,0,0,0,539,307.87H504.808a2.944,2.944,0,0,0-2.944,2.944V331.64H470.658a4.676,4.676,0,0,0-4.676,4.676v19.537h-86.2a.951.951,0,0,0-.944.951V616.361a.951.951,0,0,0,.944.951H437.07a.951.951,0,0,0,.951-.951V581.442a.958.958,0,0,1,.951-.951h24.2a.958.958,0,0,1,.951.951v34.918a.951.951,0,0,0,.944.951h113.2a.958.958,0,0,0,.951-.951V581.442a.951.951,0,0,1,.944-.951h24.2a.951.951,0,0,1,.951.951v34.918a.958.958,0,0,0,.951.951h57.286a.958.958,0,0,0,.951-.951V356.818a.958.958,0,0,0-.937-.965ZM427.767,568.364a.944.944,0,0,1-.944.944H391.44a.944.944,0,0,1-.951-.944V556.278a.951.951,0,0,1,.951-.951h35.4a.951.951,0,0,1,.944.951Zm0-31.228a.944.944,0,0,1-.944.951H391.44a.944.944,0,0,1-.951-.951V525.057a.944.944,0,0,1,.951-.951h35.4a.944.944,0,0,1,.944.951Zm0-31.221a.951.951,0,0,1-.944.951H391.44a.951.951,0,0,1-.951-.951V493.829a.951.951,0,0,1,.951-.951h35.4a.951.951,0,0,1,.944.951Zm0-31.228a.944.944,0,0,1-.944.951H391.44a.944.944,0,0,1-.951-.951V462.608a.944.944,0,0,1,.951-.951h35.4a.944.944,0,0,1,.944.951Zm0-31.221a.951.951,0,0,1-.944.951H391.44a.951.951,0,0,1-.951-.951V431.38a.944.944,0,0,1,.951-.944h35.4a.944.944,0,0,1,.944.944Zm0-31.221a.944.944,0,0,1-.944.944H391.44a.944.944,0,0,1-.951-.944V400.159a.951.951,0,0,1,.951-.951h35.4a.951.951,0,0,1,.944.951Zm0-31.228a.944.944,0,0,1-.944.951H391.44a.944.944,0,0,1-.951-.951V368.938a.944.944,0,0,1,.951-.951h35.4a.944.944,0,0,1,.944.951Zm83.887,187.34a.944.944,0,0,1-.951.944H475.32a.951.951,0,0,1-.951-.944V556.278a.958.958,0,0,1,.951-.951H510.7a.951.951,0,0,1,.951.951Zm0-31.228a.944.944,0,0,1-.951.951H475.32a.951.951,0,0,1-.951-.951V525.057a.951.951,0,0,1,.951-.951H510.7a.944.944,0,0,1,.951.951Zm0-31.221a.951.951,0,0,1-.951.951H475.32a.958.958,0,0,1-.951-.951V493.829a.958.958,0,0,1,.951-.951H510.7a.951.951,0,0,1,.951.951Zm0-31.228a.944.944,0,0,1-.951.951H475.32a.951.951,0,0,1-.951-.951V462.608a.951.951,0,0,1,.951-.951H510.7a.944.944,0,0,1,.951.951Zm0-31.221a.951.951,0,0,1-.951.951H475.32a.958.958,0,0,1-.951-.951V431.38a.951.951,0,0,1,.951-.944H510.7a.944.944,0,0,1,.951.944Zm0-31.221a.944.944,0,0,1-.951.944H475.32a.951.951,0,0,1-.951-.944V400.159a.958.958,0,0,1,.951-.951H510.7a.951.951,0,0,1,.951.951Zm0-31.228a.944.944,0,0,1-.951.951H475.32a.951.951,0,0,1-.951-.951V368.938a.951.951,0,0,1,.951-.951H510.7a.944.944,0,0,1,.951.951Zm57.322,187.34a.944.944,0,0,1-.951.944H532.642a.951.951,0,0,1-.951-.944V556.278a.958.958,0,0,1,.951-.951h35.383a.951.951,0,0,1,.951.951Zm0-31.228a.944.944,0,0,1-.951.951H532.642a.951.951,0,0,1-.951-.951V525.057a.951.951,0,0,1,.951-.951h35.383a.944.944,0,0,1,.951.951Zm0-31.221a.951.951,0,0,1-.951.951H532.642a.958.958,0,0,1-.951-.951V493.829a.958.958,0,0,1,.951-.951h35.383a.951.951,0,0,1,.951.951Zm0-31.228a.944.944,0,0,1-.951.951H532.642a.951.951,0,0,1-.951-.951V462.608a.951.951,0,0,1,.951-.951h35.383a.944.944,0,0,1,.951.951Zm0-31.221a.951.951,0,0,1-.951.951H532.642a.958.958,0,0,1-.951-.951V431.38a.951.951,0,0,1,.951-.944h35.383a.944.944,0,0,1,.951.944Zm0-31.221a.944.944,0,0,1-.951.944H532.642a.951.951,0,0,1-.951-.944V400.159a.958.958,0,0,1,.951-.951h35.383a.951.951,0,0,1,.951.951Zm0-31.228a.944.944,0,0,1-.951.951H532.642a.951.951,0,0,1-.951-.951V368.938a.951.951,0,0,1,.951-.951h35.383a.944.944,0,0,1,.951.951Zm83.887,187.34a.951.951,0,0,1-.951.944H616.529a.944.944,0,0,1-.951-.944V556.278a.951.951,0,0,1,.951-.951h35.383a.958.958,0,0,1,.951.951Zm0-31.228a.951.951,0,0,1-.951.951H616.529a.944.944,0,0,1-.937-.929V525.057a.944.944,0,0,1,.951-.951h35.383a.951.951,0,0,1,.951.951Zm0-31.221a.958.958,0,0,1-.951.951H616.529a.951.951,0,0,1-.951-.951V493.829a.951.951,0,0,1,.951-.951h35.383a.958.958,0,0,1,.951.951Zm0-31.228a.951.951,0,0,1-.951.951H616.529a.944.944,0,0,1-.951-.951V462.608a.944.944,0,0,1,.951-.951h35.383a.951.951,0,0,1,.951.951Zm0-31.221a.958.958,0,0,1-.951.951H616.529a.951.951,0,0,1-.937-.929V431.38a.944.944,0,0,1,.951-.944h35.383a.951.951,0,0,1,.951.944Zm0-31.221a.951.951,0,0,1-.951.944H616.529a.944.944,0,0,1-.951-.944V400.159a.951.951,0,0,1,.951-.951h35.383a.958.958,0,0,1,.951.951Zm0-31.228a.951.951,0,0,1-.951.951H616.529a.944.944,0,0,1-.951-.951V368.938a.944.944,0,0,1,.951-.951h35.383a.951.951,0,0,1,.951.951Z" transform="translate(-191.479 -161.029)" fill="#f2f2f2"/><path d="M334.492,123.439l-10.93,6.93L330.2,118.3a10.811,10.811,0,0,0-6.606-2.359h-.176a12.739,12.739,0,0,1-2.268-.169l-3.7,2.373,1.585-2.888a13.142,13.142,0,0,1-6.479-4.93l-6.627,4.226,4.183-7.613c-3.874-4.655-9.1-7.508-14.853-7.508-6.895,0-13.036,4.1-17,10.487a12.677,12.677,0,0,1-11.269,6.057h-.366c-7.613,0-13.783,8.635-13.783,19.283s6.17,19.276,13.783,19.276a10.367,10.367,0,0,0,4.8-1.2A19.868,19.868,0,0,1,288.093,153a17.368,17.368,0,0,0,14.184,0,19.882,19.882,0,0,1,16.53.324,10.367,10.367,0,0,0,4.754,1.176c7.613,0,13.783-8.635,13.783-19.276a24.446,24.446,0,0,0-2.852-11.79Z" transform="translate(-154.216 -99.39)" fill="#f2f2f2"/><path d="M313.9,162.164a20.346,20.346,0,0,0-11.811,1.282,17.389,17.389,0,0,1-14.177,0,19.894,19.894,0,0,0-16.685.331,10.366,10.366,0,0,1-4.8,1.2c-6.761,0-12.388-6.81-13.557-15.8a13.051,13.051,0,0,0,3.381-3.641c3.965-6.43,10.092-10.536,17-10.536s12.959,4.05,16.9,10.374a13.015,13.015,0,0,0,11.233,6.17h.176C306.973,151.551,311.635,155.868,313.9,162.164Z" transform="translate(-154.228 -109.909)" opacity="0.03"/><path d="M881.674,300.094l-5.465,3.43,3.31-6.022a5.4,5.4,0,0,0-3.3-1.176h-.085a6.06,6.06,0,0,1-1.134-.085l-1.845,1.176.789-1.444a6.621,6.621,0,0,1-3.233-2.451l-3.3,2.113,2.113-3.8a9.677,9.677,0,0,0-7.4-3.733c-3.437,0-6.5,2.049-8.451,5.233a6.338,6.338,0,0,1-5.634,3.021h-.183c-3.8,0-6.874,4.3-6.874,9.613s3.078,9.613,6.874,9.613a5.156,5.156,0,0,0,2.395-.6,9.916,9.916,0,0,1,8.318-.162,8.684,8.684,0,0,0,7.078,0,9.938,9.938,0,0,1,8.247.162,5.135,5.135,0,0,0,2.366.585c3.8,0,6.874-4.3,6.874-9.613A12.261,12.261,0,0,0,881.674,300.094Z" transform="translate(-328.141 -155.183)" fill="#f2f2f2"/><path d="M871.4,319.413a10.226,10.226,0,0,0-5.895.641,8.648,8.648,0,0,1-3.521.747,8.74,8.74,0,0,1-3.521-.761,9.93,9.93,0,0,0-8.325.162,5.134,5.134,0,0,1-2.395.6c-3.374,0-6.177-3.395-6.761-7.881a6.519,6.519,0,0,0,1.69-1.817c1.972-3.183,5.036-5.233,8.451-5.233s6.465,2.021,8.451,5.176a6.494,6.494,0,0,0,5.634,3.078h.092C867.94,314.124,870.264,316.279,871.4,319.413Z" transform="translate(-328.141 -160.438)" opacity="0.03"/><path d="M799.163,758.7v3.521A13.466,13.466,0,0,1,784.436,775.6c-27.573-2.62-55.019-7.494-82.683-6.648-51,1.556-102.431,22.417-151.8,9.529-13.924-3.634-27.692-9.952-42.018-8.592-12.853,1.218-24.291,8.487-36.742,11.9-37.869,10.4-76.422-15.875-115.686-14.818-25.875.7-50.652,13.3-76.5,11.9-14.98-.8-29.249-6.282-43.863-9.656-36.383-8.409-73.851-3.7-111.34-.789a9.86,9.86,0,0,1-10.614-9.8v-2.986a9.86,9.86,0,0,1,9.86-9.86l662.675-.535A13.466,13.466,0,0,1,799.163,758.7Z" transform="translate(-112.923 -290.366)" fill="#3f3d56"/><path d="M799.163,758.7v3.521A13.466,13.466,0,0,1,784.436,775.6c-27.573-2.62-55.019-7.494-82.683-6.648-51,1.556-102.431,22.417-151.8,9.529-13.924-3.634-27.692-9.952-42.018-8.592-12.853,1.218-24.291,8.487-36.742,11.9-37.869,10.4-76.422-15.875-115.686-14.818-25.875.7-50.652,13.3-76.5,11.9-14.98-.8-29.249-6.282-43.863-9.656-36.383-8.409-73.851-3.7-111.34-.789a9.86,9.86,0,0,1-10.614-9.8v-2.986a9.86,9.86,0,0,1,9.86-9.86l662.675-.535A13.466,13.466,0,0,1,799.163,758.7Z" transform="translate(-112.923 -290.366)" fill="#05668d" opacity="0.1"/><path d="M799.163,749.549v3.521a14.392,14.392,0,0,1-.078,1.465,13.459,13.459,0,0,1-14.649,11.973c-27.573-2.627-55.019-7.5-82.683-6.649-51,1.564-102.431,22.424-151.8,9.529-13.924-3.634-27.692-9.952-42.018-8.592-12.853,1.218-24.291,8.451-36.742,11.9-37.869,10.339-76.422-15.931-115.686-14.839-25.875.7-50.652,13.3-76.5,11.909-14.98-.81-29.249-6.282-43.863-9.663-36.376-8.4-73.851-3.7-111.34-.789a9.86,9.86,0,0,1-10.466-8.1,9.646,9.646,0,0,1-.148-1.7V746.5a9.86,9.86,0,0,1,9.86-9.86l166.077-.141,339.331-.282,157.253-.127a13.459,13.459,0,0,1,13.452,13.459Z" transform="translate(-112.923 -287.66)" fill="#05668d"/><path d="M998,704.881c2.113-3.881-.289-8.635-3.021-12.1s-6.064-7.043-5.993-11.473c.106-6.339,6.831-10.078,12.205-13.438a59.774,59.774,0,0,0,10.959-8.811,16.2,16.2,0,0,0,3.367-4.507c1.113-2.479,1.077-5.3,1.007-8.015q-.345-13.564-1.338-27.108" transform="translate(-371.91 -253.162)" fill="none" stroke="#3f3d56" stroke-miterlimit="10" stroke-width="4"/><path d="M1032.427,614.774a9.86,9.86,0,0,0-4.93-8.1l-2.212,4.381.063-5.3a9.76,9.76,0,0,0-3.254-.387,9.86,9.86,0,1,0,10.339,9.409Z" transform="translate(-378.929 -248.999)" fill="#57b894"/><path d="M1007.851,707.681a9.86,9.86,0,1,1,.479-7.958l-6.177,5.029,6.8-1.578a9.86,9.86,0,0,1-1.1,4.507Z" transform="translate(-371.981 -275.007)" fill="#57b894"/><path d="M1004.292,678.18a9.86,9.86,0,0,1-3.134-19.4l-.056,4.071,2.24-4.43h0a9.889,9.889,0,0,1,.951,19.755Z" transform="translate(-373.302 -264.69)" fill="#57b894"/><path d="M1038.47,655.515a9.871,9.871,0,1,1,4.367-18.466l-1.746,4.782,3.6-3.444a9.86,9.86,0,0,1,3.19,6.817,9.7,9.7,0,0,1-.247,2.726A9.86,9.86,0,0,1,1038.47,655.515Z" transform="translate(-383.486 -257.998)" fill="#57b894"/><path d="M1031.114,619.681c-2.282.254-4.5.965-6.789,1.106s-4.8-.409-6.254-2.19a30.581,30.581,0,0,1-1.824-3.219,7.043,7.043,0,0,0-2.493-2.338,9.86,9.86,0,1,0,18.48,6.557C1031.86,619.618,1031.487,619.639,1031.114,619.681Z" transform="translate(-378.947 -251.272)" opacity="0.1"/><path d="M1038.46,657.886a9.86,9.86,0,0,1-9.4-14.086,7.231,7.231,0,0,1,1.986,1.993,32.25,32.25,0,0,0,1.958,3.261c1.542,1.817,4.169,2.409,6.557,2.3s4.691-.782,7.043-1c.331-.035.662-.056,1-.063A9.86,9.86,0,0,1,1038.46,657.886Z" transform="translate(-383.476 -260.369)" opacity="0.1"/><path d="M1004.388,680.637A9.86,9.86,0,0,1,994.9,666.72a7.746,7.746,0,0,1,2.113,2.007c.768,1.085,1.247,2.331,2.113,3.331,1.669,1.859,4.472,2.507,6.994,2.451s4.81-.655,7.24-.838A9.9,9.9,0,0,1,1004.388,680.637Z" transform="translate(-373.398 -267.146)" opacity="0.1"/><path d="M1007.74,710.334a9.872,9.872,0,0,1-18.023-8.064,9.922,9.922,0,0,1,2.169,1.937,41.823,41.823,0,0,0,2.648,3.521c2.021,1.979,5.282,2.817,8.191,2.874A42.258,42.258,0,0,0,1007.74,710.334Z" transform="translate(-371.87 -277.659)" opacity="0.1"/><path d="M980.62,732.649s7.8-.246,10.156-1.916,11.973-3.676,12.579-.993,11.726,13.381,2.916,13.431-20.424-1.409-22.812-2.817S980.62,732.649,980.62,732.649Z" transform="translate(-369.435 -285.395)" fill="#656380"/><path d="M1006.432,743.963c-8.811.07-20.466-1.373-22.812-2.817-1.789-1.085-2.5-4.993-2.74-6.8h-.261s.493,6.289,2.817,7.747,14.008,2.873,22.812,2.817c2.542,0,3.423-.93,3.374-2.268C1009.291,743.463,1008.355,743.963,1006.432,743.963Z" transform="translate(-369.435 -287.146)" opacity="0.2"/><path d="M723.79,610.408c0,11.762,6.029,12.452,16.079,21.291s16.072-9.529,16.072-21.291-7.2-21.3-16.072-21.3S723.79,598.646,723.79,610.408Z" transform="translate(-293.487 -244.196)" fill="#915766"/><path d="M577.987,469.31c-.951,2.3.366,5.022,2.331,6.543s4.451,2.176,6.81,2.965c10.564,3.521,20.016,10.874,25.242,20.72s5.923,22.206.972,32.2c-2.641,5.331-6.733,9.86-9.156,15.276-4.874,10.776-2.4,24,4.6,33.531s20.713,11.374,32.158,14.332c0,0,29.58,23.241,40.144,16.9" transform="translate(-250.277 -208.769)" fill="none" stroke="#3f3d56" stroke-miterlimit="10" stroke-width="1"/><path d="M614.414,724.842s-1.409,11.973,4.93,12.677a81.6,81.6,0,0,0,9.3.3,10.149,10.149,0,0,0,8.5-15.494l-.19-.3C630.612,712.165,614.414,724.842,614.414,724.842Z" transform="translate(-261.103 -282.391)" fill="#915766"/><path d="M613.851,703.25s15.494,20.424,38.736,2.113-4.93-26.763-4.93-26.763h-29.58l-17.607,7.747Z" transform="translate(-257.019 -270.659)" fill="#b56d7e"/><path d="M704.14,689.6s7.043,8.451,13.381,7.747c5.085-.563,15.156,4.31,13.487,13.17A10.015,10.015,0,0,1,719.3,718.6a8.021,8.021,0,0,1-6.008-5.057s-22.537,1.409-21.833-4.93S704.14,689.6,704.14,689.6Z" transform="translate(-283.922 -273.912)" fill="#915766"/><path d="M608.6,661.342s9.156,14.086,0,23.241-19.016,10.564-19.016,10.564,3.521,6.339-9.86,5.634-17.607-4.93-13.381-11.268,14.79-13.381,12.677-18.311-4.93-15.494-.7-21.833a23.3,23.3,0,0,1-4.437-4.888c-3.74-5.691,3.747-12.1,8.923-7.67l3.965,3.4s11.973-9.86,38.031-4.93c0,0,10.564-.7,12.677-8.451,0,0-11.268-24.65,18.311-42.961a35.413,35.413,0,0,1,16.9-2.817c9.86.7,20.424,1.409,27.467,16.9,0,0,5.754,10.564,12.515,14.635a14.9,14.9,0,0,1,6.853,10.381c2.035,12.135-.542,31.432-41.9,21.467,0,0-3.169,25.706-22.889,36.271,0,0-1.409,7.043,0,9.156s8.451,11.973-2.817,11.268c-5.634-.345-9.98-.352-12.973-.261a7.043,7.043,0,0,1-6.162-10.818c.035-.063.077-.127.12-.19s2.113-9.86-4.93-17.607l-1.409-8.451Z" transform="translate(-246.46 -241.781)" fill="#9c5e6d"/><ellipse cx="9.156" cy="3.521" rx="9.156" ry="3.521" transform="translate(452.263 375.198)" fill="#915766"/><path d="M416.112,652.484a34.5,34.5,0,0,1-6.557,2.817c-4.071,1.113-8.451.7-12.543,1.655-1.683.387-3.521,1.2-4.05,2.817a5.751,5.751,0,0,0,.444,3.712c4.543,13.325,7.282,27.467,14.536,39.56a59.815,59.815,0,0,0,11.226,13.621c1.648,1.486,3.521,2.944,5.719,3.176a5.817,5.817,0,0,0,5.916-8.17c-.655-1.409-1.859-2.564-2.641-3.944a14.947,14.947,0,0,1-1.458-5.634c-.7-5.7-1.409-11.656.57-17.058,1.324-3.62,3.754-6.7,5.775-9.98s3.712-7.043,3.261-10.867a18.921,18.921,0,0,0-2.93-7.261c-1.345-2.261-4.014-8.353-6.726-9.106S418.57,651.224,416.112,652.484Z" transform="translate(-195.608 -261.531)" fill="#fff"/><path d="M528.891,713.2a11.366,11.366,0,0,1-.528,3.81c-.852,2.24-2.958,3.775-4.043,5.909-1.514,2.965-.824,6.557.176,9.733.627,1.993,1.451,4.064,3.134,5.3a10.411,10.411,0,0,0,4.775,1.528c14.473,2,29.164.852,43.764,1.275,2.662.077,5.479.169,7.8-1.134s3.761-4.571,2.176-6.712c-1.409-1.923-4.226-1.9-6.606-2.021a27.164,27.164,0,0,1-16.776-6.909,11.973,11.973,0,0,1-2.352-2.7,16.247,16.247,0,0,1-1.232-2.817,126.235,126.235,0,0,0-7.289-16.135,8.5,8.5,0,0,0-3.134-3.754,8.31,8.31,0,0,0-3.395-.74c-3.641-.239-13.065-1.479-15.875,1.352C526.89,701.788,528.947,709.888,528.891,713.2Z" transform="translate(-234.239 -276.206)" fill="#fff"/><circle cx="23.241" cy="23.241" r="23.241" transform="translate(293.799 67.426)" fill="#fbbebe"/><path d="M530.174,250.826c-1.409,3.7-3.726,7.177-7.134,9.156l32.144,6.557a33.926,33.926,0,0,1-.451-14.332,8.366,8.366,0,0,0,.19-3.521c-.606-2.331-3.233-3.458-5.578-3.993-5.867-1.338-11.057-2.057-16.508-4.641C531.174,242.9,531.407,247.537,530.174,250.826Z" transform="translate(-234.122 -140.974)" fill="#fbbebe"/><path d="M510.426,255.063a25.157,25.157,0,0,1,21.91.578c4.12,2.169,7.536,5.451,10.888,8.684,3.092,2.979,6.388,6.395,6.606,10.684.106,2.078-.542,4.106-.873,6.163A20.671,20.671,0,0,0,560.015,302.4c2.549,4.226,3.078,9.409,3.12,14.374.148,18.8-5.782,37.827-1.549,56.146.993,4.3,2.535,8.451,3.395,12.79,1.113,5.634,1.056,11.374,1.641,17.065a76.345,76.345,0,0,0,4.1,18.044c-1.409,2.226-4.31,3.078-6.93,2.895a19.646,19.646,0,0,1-7.416-2.514c-11.325-5.8-21.706-13.438-33.439-18.368-7.747-3.261-16.03-5.289-23.558-9.057s-14.536-9.74-16.839-17.832a42.043,42.043,0,0,1-1.113-10.832c-.225-15.332-.437-30.834,2.9-45.779,2.937-13.2,8.613-25.819,9.86-39.285.4-4.388.409-9.078,2.859-12.733C500.5,262.106,507.968,260.789,510.426,255.063Z" transform="translate(-221.782 -144.753)" fill="#3f3d56"/><path d="M533.607,213.7c1.373-1.789,4.014-2.028,6.2-1.5s4.226,1.655,6.409,2.113a3.775,3.775,0,0,0,3.007-.423,4.384,4.384,0,0,0,1.3-2.866,54.676,54.676,0,0,0,.535-13.938,4.163,4.163,0,0,1,.127-1.958c.549-1.317,2.219-1.634,3.578-2.057A10.677,10.677,0,0,0,562,182.136a4.317,4.317,0,0,0-1.331-3,5.5,5.5,0,0,0-3.479-.831q-9.367-.07-18.741,0c-2.31,0-4.74.077-6.747,1.232a32.683,32.683,0,0,0-3.916,3.3c-3.465,2.817-8.163,3.366-12.381,4.8a12.283,12.283,0,0,0-5.43,3.24,5.712,5.712,0,0,0-1.2,5.93,21.613,21.613,0,0,0,1.514,2.331c2.493,3.979.831,9.156,1.2,13.825.465,5.846,9.113,15.332,14.98,16.713C535.945,231.887,530.473,217.52,533.607,213.7Z" transform="translate(-229.786 -122.704)" fill="#3f3d56"/><path d="M523.688,575.409c.6,4.268,1.366,8.557,1.162,12.86-.289,6.008-2.451,11.8-2.852,17.8-.3,4.486.394,9.022-.232,13.473-.4,2.817-1.324,5.592-1.9,8.451a34.8,34.8,0,0,0,5.592,26.636,4.343,4.343,0,0,0,1.62,1.578,4.632,4.632,0,0,0,2.014.268,144.785,144.785,0,0,0,20.192-1.845,1.409,1.409,0,0,0,1.578-1.338c1.24-6.339-1.585-12.747-2.3-19.192-.768-6.881.88-13.776,2.521-20.509a90.416,90.416,0,0,1,2.782-9.8c.789-2.169,1.747-4.268,2.437-6.472a49.3,49.3,0,0,0,1.768-10.564q.7-8.451.754-17.008a73.332,73.332,0,0,0-1.331-16.051c-1.507-6.684-4.592-12.9-7.656-19.016a12.33,12.33,0,0,0-4.5,2.113,101.27,101.27,0,0,1-12.318,6.8c-2.859,1.324-8.451,2.268-10.254,5.043s-.634,8.3-.5,11.311Q522.617,567.715,523.688,575.409Z" transform="translate(-232.988 -228.1)" fill="#3f3d56"/><path d="M523.688,575.409c.6,4.268,1.366,8.557,1.162,12.86-.289,6.008-2.451,11.8-2.852,17.8-.3,4.486.394,9.022-.232,13.473-.4,2.817-1.324,5.592-1.9,8.451a34.8,34.8,0,0,0,5.592,26.636,4.343,4.343,0,0,0,1.62,1.578,4.632,4.632,0,0,0,2.014.268,144.785,144.785,0,0,0,20.192-1.845,1.409,1.409,0,0,0,1.578-1.338c1.24-6.339-1.585-12.747-2.3-19.192-.768-6.881.88-13.776,2.521-20.509a90.416,90.416,0,0,1,2.782-9.8c.789-2.169,1.747-4.268,2.437-6.472a49.3,49.3,0,0,0,1.768-10.564q.7-8.451.754-17.008a73.332,73.332,0,0,0-1.331-16.051c-1.507-6.684-4.592-12.9-7.656-19.016a12.33,12.33,0,0,0-4.5,2.113,101.27,101.27,0,0,1-12.318,6.8c-2.859,1.324-8.451,2.268-10.254,5.043s-.634,8.3-.5,11.311Q522.617,567.715,523.688,575.409Z" transform="translate(-232.988 -228.1)" opacity="0.1"/><path d="M468.171,463.06c-3.085,8.311,1.451,17.29,5.395,25.227C483.243,507.845,490,528.72,496.694,549.5c.5,1.557,1.007,3.254.444,4.789a6.226,6.226,0,0,1-2.261,2.683c-4.627,3.521-10.515,4.768-16.022,6.606a72.578,72.578,0,0,0-15.2,7.12c-3.986,2.472-7.747,5.331-11.459,8.184l-11.881,9.071a7.817,7.817,0,0,0-1.986,1.923c-1.148,1.8-.7,4.141-.106,6.2a104.941,104.941,0,0,0,5.817,15.875,5.538,5.538,0,0,0,2.113,2.768c1.859.993,4.127-.324,5.543-1.888s2.641-3.521,4.634-4.162,4.19.141,6.268-.148c3.374-.479,5.634-3.578,8.036-5.958,9.916-9.733,26.474-9.029,37.391-17.607a50.2,50.2,0,0,1,4.993-3.909c1.817-1.092,3.937-1.683,5.853-2.648,5.817-2.93,9.48-8.994,11.438-15.206s2.521-12.776,3.93-19.142a89.3,89.3,0,0,0,2.007-9.86,53.3,53.3,0,0,0-.2-9.36l-3.937-48.7c-.324-3.965-.641-7.93-1.268-11.86-11.691.415-23.375.887-35.073,1.028C486.482,465.349,476.974,466,468.171,463.06Z" transform="translate(-208.861 -206.921)" fill="#3f3d56"/><path d="M474.385,471.2c1.585,2.557,5.444,2.5,8.1,1.106s4.726-3.754,7.388-5.134c3.585-1.866,7.818-1.8,11.853-1.683,6.388.183,12.853.373,19.016,2.113,6.339,1.81,12.543,5.3,19.121,4.6a3.947,3.947,0,0,0,3.014-1.409,4.551,4.551,0,0,0,.5-2.275l.211-5.747a5.2,5.2,0,0,0-.458-2.9,4.853,4.853,0,0,0-2.176-1.669c-9.36-4.529-20.023-5.374-30.411-5.733q-7.923-.261-15.853-.218c-4.479,0-9.86-.62-14.227.578C474.6,454.443,471.413,466.437,474.385,471.2Z" transform="translate(-219.399 -203.678)" fill="#3f3d56"/><path d="M532.581,262.156c-12.262-.106-23.368-8.2-35.623-8.4a9.339,9.339,0,0,0-4.331.747c-1.7.859-2.817,2.521-4.127,3.93-3.62,3.923-8.874,6.022-12.593,9.86-3.521,3.592-5.437,8.937-4.057,13.755s6.578,8.508,11.452,7.353a29.51,29.51,0,0,1,11.5-15.621,57.746,57.746,0,0,1,8.987-4.719c5.515-2.5,11.67-5.043,17.424-3.169a24.513,24.513,0,0,1,5.944,3.24l9.585,6.437C535.631,271.164,534.624,266.22,532.581,262.156Z" transform="translate(-218.851 -145.022)" fill="#05668d"/><path d="M479.126,289.326c-1.627,2.028.7,4.972.359,7.55-.239,1.711-1.648,3.021-2.24,4.648s-.282,3.521-.514,5.324a23.079,23.079,0,0,1-1.021,3.8,68.2,68.2,0,0,0-2.155,11.268l-2.148,16.03a60.07,60.07,0,0,0-.7,7.275,20.68,20.68,0,0,1-.366,5.444,37.43,37.43,0,0,1-2.233,4.93c-.711,1.641-1.035,3.69-.077,5.233a9.14,9.14,0,0,0-1.916,11.416,6.254,6.254,0,0,1,.986,1.817,4.634,4.634,0,0,1-.437,2.676l-2.169,5.782c-.556,1.479-.7,3.733.817,4.071a13.585,13.585,0,0,0-2.93,4.627,5.493,5.493,0,0,0,.782,5.219,6.865,6.865,0,0,1,1.359,1.648,4.35,4.35,0,0,1-.162,2.6,9.543,9.543,0,0,0,1.183,7.487,6.7,6.7,0,0,0,6.754,2.895c4.338-.979,8.24-2.521,12.614-1.718,9.423,1.725,18.875,3.465,28,6.381,10.409,3.324,20.495,8.2,31.383,9.219a3.015,3.015,0,0,0,2.113-.324,3.163,3.163,0,0,0,.972-1.993l3.373-15.769a161.844,161.844,0,0,0,3.092-17.671c.387-3.831.493-7.691.606-11.543l.866-30.665a30.538,30.538,0,0,0-1.747-13.332l-4.986-15.917c-2.817-9.085-9.374-17.142-11.7-26.375-1.472-5.846-2.557-12.114-6.508-16.67-5.634-6.493-15.353-7.5-23.868-6.388a28.982,28.982,0,0,0-11.057,3.373c-3.852,2.3-6.684,5.937-9.43,9.494C483.739,284.086,481.436,286.438,479.126,289.326Z" transform="translate(-216.083 -149.211)" fill="#05668d"/><path d="M514.206,418.037c.7,3.028,2.176,5.817,3.078,8.789,1.507,4.979,1.409,10.346,2.888,15.325.634,2.113,1.557,4.1,2.007,6.233,1.063,4.986-.486,10.135-2.409,14.853s-4.261,9.367-4.888,14.424c-.437,3.557.2,7.578,2.937,9.86,2.852,2.4,6.987,2.24,10.7,1.916a11.369,11.369,0,0,0,3.888-.8c2.817-1.345,4.029-4.7,4.7-7.747,2.219-10.283,1.585-20.938.937-31.439l-1.676-27.46c-.324-5.282-.7-10.677-2.3-15.755-.592-1.845-1.62-5.578-3.31-6.761s-6.437-1.218-8.508-1.317C512.523,397.7,512.636,411.248,514.206,418.037Z" transform="translate(-231.275 -187.724)" fill="#fbbebe"/><path d="M521.646,282.186a6.658,6.658,0,0,0-6.388.57,19.894,19.894,0,0,0-4.8,4.648c-4.282,5.226-8.811,11.226-8.177,17.952.239,2.521,1.2,4.93,1.859,7.36,2.866,10.726-.3,22.079.056,33.186.211,6.416,1.606,12.726,3,19.016.282,1.275.7,2.754,1.972,3.19a4.221,4.221,0,0,0,2.817-.444,22.762,22.762,0,0,1,20.826,2.62c2.3-1.225,1.409-5.1.923-7.656-1.528-7.585.549-15.41,3.071-22.727s5.543-14.621,5.965-22.347c.472-8.761-2.43-17.3-5.3-25.594-.627-1.81-1.31-3.7-2.761-4.93a10.989,10.989,0,0,0-4.169-1.9C527.541,284.179,524.456,283.658,521.646,282.186Z" transform="translate(-227.966 -153.262)" fill="#3f3d56"/><path d="M667.47,647.6s21.129,23.241,40.144,16.9" transform="translate(-276.832 -261.492)" fill="none" stroke="#3f3d56" stroke-miterlimit="10" stroke-width="1"/><path d="M690.293,610.408c0,11.762-6.022,12.452-16.072,21.291s-16.072-9.529-16.072-21.291,7.2-21.3,16.072-21.3S690.293,598.646,690.293,610.408Z" transform="translate(-274.076 -244.196)" fill="#915766"/><path d="M191.7,625.037A17.389,17.389,0,0,0,194,616.2c0-7.979-4.93-14.445-11.043-14.445S171.92,608.225,171.92,616.2a17.389,17.389,0,0,0,2.3,8.832,18.086,18.086,0,0,0,0,17.663,18.086,18.086,0,0,0,0,17.664,18.086,18.086,0,0,0,0,17.663,17.41,17.41,0,0,0-2.3,8.832c0,7.979,4.93,14.452,11.036,14.452S194,694.838,194,686.859a17.41,17.41,0,0,0-2.3-8.832,18.086,18.086,0,0,0,0-17.642,18.086,18.086,0,0,0,0-17.663,18.086,18.086,0,0,0,0-17.663Z" transform="translate(-130.29 -247.937)" fill="#3f3d56"/><ellipse cx="11.036" cy="14.452" rx="11.036" ry="14.452" transform="translate(41.602 336.16)" fill="#3f3d56"/><ellipse cx="11.036" cy="14.452" rx="11.036" ry="14.452" transform="translate(41.602 318.496)" fill="#3f3d56"/><path d="M124.128,364.55a53.765,53.765,0,0,1-4.113-6.05l29.009-4.768-31.376.232a52.976,52.976,0,0,1-1.007-41.884l42.081,21.833-38.806-28.545a52.878,52.878,0,1,1,87.331,59.16,52.36,52.36,0,0,1,6.029,9.642l-37.651,19.607L215.769,380.3a52.92,52.92,0,0,1-8.529,49.659,52.878,52.878,0,1,1-83.106,0,52.878,52.878,0,0,1,0-65.386Z" transform="translate(-112.81 -152.471)" fill="#57b894"/><path d="M218.6,446.593a52.68,52.68,0,0,1-11.318,32.693,52.878,52.878,0,1,1-83.106,0C117.054,470.285,218.6,440.655,218.6,446.593Z" transform="translate(-112.822 -201.821)" opacity="0.1"/></g></svg>